<svg width="35" height="35" viewBox="0 0 35 35" fill="none" xmlns="http://www.w3.org/2000/svg">
<path d="M11.778 29.4986C9.96795 29.4986 8.54569 29.1512 7.51131 28.4562C6.57171 27.881 5.85976 26.9988 5.49591 25.9589L8.51634 25.2271C8.78118 25.6846 9.1414 26.0796 9.57261 26.3853C10.2444 26.816 11.0377 27.0174 11.8335 26.9596C12.6766 26.9943 13.508 26.7537 14.2023 26.2743C14.5263 26.0092 14.7807 25.6688 14.943 25.2828C15.1053 24.8968 15.1708 24.4769 15.1336 24.0598V21.3634H14.9655C14.7633 21.7518 14.5092 22.1109 14.2103 22.4309C13.8417 22.8225 13.3971 23.1346 12.9037 23.3484C12.2598 23.6152 11.5663 23.7415 10.8696 23.7188C9.82827 23.7321 8.80258 23.4646 7.9004 22.9443C6.98328 22.3952 6.24843 21.5878 5.78786 20.6231C5.22802 19.4138 4.95982 18.0901 5.00487 16.7583C4.96377 15.3956 5.23144 14.0414 5.78786 12.7969C6.24496 11.7935 6.97922 10.9417 7.90414 10.3417C8.79458 9.78231 9.8272 9.4912 10.8787 9.50316C11.5928 9.47631 12.3028 9.6209 12.9496 9.92481C13.444 10.1693 13.8827 10.5133 14.238 10.9352C14.5221 11.2749 14.7662 11.6462 14.9655 12.0416H15.1507V9.68783H18.4599V24.1522C18.4992 25.2132 18.1936 26.2583 17.5888 27.131C16.9857 27.9417 16.16 28.5598 15.2121 28.9099C14.1142 29.3189 12.9494 29.5186 11.778 29.4986ZM11.8058 21.0853C12.2809 21.1094 12.7548 21.0169 13.186 20.8158C13.6172 20.6148 13.9926 20.3113 14.2797 19.9319C14.9104 18.9913 15.2163 17.8702 15.1507 16.7396C15.2059 15.5926 14.905 14.4567 14.2893 13.4875C14.0148 13.0873 13.6425 12.764 13.2079 12.5482C12.7732 12.3325 12.2905 12.2316 11.8058 12.2551C11.3096 12.2281 10.815 12.3315 10.3713 12.555C9.92749 12.7786 9.55003 13.1144 9.27638 13.5292C8.67667 14.4897 8.37917 15.6081 8.4224 16.7396C8.36753 17.8561 8.66947 18.9611 9.28439 19.8945C9.57175 20.2878 9.95306 20.6029 10.3935 20.8109C10.8339 21.019 11.3195 21.1133 11.8058 21.0853ZM34.6183 9.68837L29.5478 23.9205H25.8436L20.7731 9.68837H24.3492L27.6199 20.2607H27.7683L31.0513 9.68837H34.6183Z" fill="#05050A"/>
</svg>
